<?xml version="1.0" encoding="UTF-8" standalone="no"?>
<svg xmlns="http://www.w3.org/2000/svg" xmlns:xlink="http://www.w3.org/1999/xlink" width="300" height="600" viewBox="0 0 300 600">
  <rect width="100%" height="100%" fill="#1e1e1e"/>
  <text x="20" y="30" fill="white" font-family="Arial" font-size="20">Infinite Scroll List</text>
  
  <!-- Item 1 -->
  <g transform="translate(0,60)">
    <rect x="10" y="0" width="280" height="70" rx="8" fill="#2d2d2d"/>
    <circle cx="40" cy="35" r="20" fill="#6b4fbb"/>
    <text x="40" y="42" fill="white" font-family="Arial" font-size="18" text-anchor="middle">1</text>
    <text x="80" y="30" fill="white" font-family="Arial" font-size="16">Item 1</text>
    <text x="80" y="50" fill="#888" font-family="Arial" font-size="14">Dynamically loaded with pagination</text>
  </g>

  <!-- Item 2 -->
  <g transform="translate(0,140)">
    <rect x="10" y="0" width="280" height="70" rx="8" fill="#2d2d2d"/>
    <circle cx="40" cy="35" r="20" fill="#6b4fbb"/>
    <text x="40" y="42" fill="white" font-family="Arial" font-size="18" text-anchor="middle">2</text>
    <text x="80" y="30" fill="white" font-family="Arial" font-size="16">Item 2</text>
    <text x="80" y="50" fill="#888" font-family="Arial" font-size="14">Dynamically loaded with pagination</text>
  </g>

  <!-- Item 3 -->
  <g transform="translate(0,220)">
    <rect x="10" y="0" width="280" height="70" rx="8" fill="#2d2d2d"/>
    <circle cx="40" cy="35" r="20" fill="#6b4fbb"/>
    <text x="40" y="42" fill="white" font-family="Arial" font-size="18" text-anchor="middle">3</text>
    <text x="80" y="30" fill="white" font-family="Arial" font-size="16">Item 3</text>
    <text x="80" y="50" fill="#888" font-family="Arial" font-size="14">Dynamically loaded with pagination</text>
  </g>

  <!-- Item 4 -->
  <g transform="translate(0,300)">
    <rect x="10" y="0" width="280" height="70" rx="8" fill="#2d2d2d"/>
    <circle cx="40" cy="35" r="20" fill="#6b4fbb"/>
    <text x="40" y="42" fill="white" font-family="Arial" font-size="18" text-anchor="middle">4</text>
    <text x="80" y="30" fill="white" font-family="Arial" font-size="16">Item 4</text>
    <text x="80" y="50" fill="#888" font-family="Arial" font-size="14">Dynamically loaded with pagination</text>
  </g>

  <!-- Item 5 -->
  <g transform="translate(0,380)">
    <rect x="10" y="0" width="280" height="70" rx="8" fill="#2d2d2d"/>
    <circle cx="40" cy="35" r="20" fill="#6b4fbb"/>
    <text x="40" y="42" fill="white" font-family="Arial" font-size="18" text-anchor="middle">5</text>
    <text x="80" y="30" fill="white" font-family="Arial" font-size="16">Item 5</text>
    <text x="80" y="50" fill="#888" font-family="Arial" font-size="14">Dynamically loaded with pagination</text>
  </g>

  <!-- Item 6 -->
  <g transform="translate(0,460)">
    <rect x="10" y="0" width="280" height="70" rx="8" fill="#2d2d2d"/>
    <circle cx="40" cy="35" r="20" fill="#6b4fbb"/>
    <text x="40" y="42" fill="white" font-family="Arial" font-size="18" text-anchor="middle">6</text>
    <text x="80" y="30" fill="white" font-family="Arial" font-size="16">Item 6</text>
    <text x="80" y="50" fill="#888" font-family="Arial" font-size="14">Dynamically loaded with pagination</text>
  </g>

  <!-- Item 7 -->
  <g transform="translate(0,540)">
    <rect x="10" y="0" width="280" height="70" rx="8" fill="#2d2d2d"/>
    <circle cx="40" cy="35" r="20" fill="#6b4fbb"/>
    <text x="40" y="42" fill="white" font-family="Arial" font-size="18" text-anchor="middle">7</text>
    <text x="80" y="30" fill="white" font-family="Arial" font-size="16">Item 7</text>
    <text x="80" y="50" fill="#888" font-family="Arial" font-size="14">Dynamically loaded with pagination</text>
  </g>
</svg>